<svg xmlns="http://www.w3.org/2000/svg" width="1194" height="834" viewBox="0 0 1194 834" role="img" aria-label="記憶の状態"><rect width="100%" height="100%" fill="#F5F7FB"/><text font-family="Noto Sans JP,Noto Sans CJK JP,sans-serif" font-size="11" font-weight="500" text-anchor="start" fill="#18243D"><title>9:41   10月6日 火曜日</title><tspan x="25" y="21.869999999999997">9:41   10月6日 火曜日</tspan></text><text font-family="Noto Sans JP,Noto Sans CJK JP,sans-serif" font-size="11" font-weight="400" text-anchor="end" fill="#63718A"><title>100%</title><tspan x="1169" y="21.869999999999997">100%</tspan></text><rect x="12" y="40" width="230" height="776" rx="20" fill="#FFFFFF"><title>Navigation / Regular sidebar</title></rect><g transform="translate(12,40)"><g transform="translate(21,26) scale(1.2083333333333333,1.2083333333333333)"><title>deck</title><path d="M4 7h16v14H4z M7 3h10 M5 5h14 M8 11h8 M8 15h5" fill="none" stroke="#2563EB" stroke-width="1.7" stroke-linecap="round" stroke-linejoin="round"/></g><text font-family="Noto Sans JP,Noto Sans CJK JP,sans-serif" font-size="24" font-weight="700" text-anchor="start" fill="#18243D"><title>Negoto</title><tspan x="63" y="49.08">Negoto</tspan></text><text font-family="Noto Sans JP,Noto Sans CJK JP,sans-serif" font-size="10" font-weight="400" text-anchor="start" fill="#63718A"><title>自分のペースで、長く覚える</title><tspan x="21" y="80.7">自分のペースで、長く覚える</tspan></text><g transform="translate(26,123) scale(0.9166666666666666,0.9166666666666666)"><title>deck</title><path d="M4 7h16v14H4z M7 3h10 M5 5h14 M8 11h8 M8 15h5" fill="none" stroke="#63718A" stroke-width="1.7" stroke-linecap="round" stroke-linejoin="round"/></g><text font-family="Noto Sans JP,Noto Sans CJK JP,sans-serif" font-size="14" font-weight="400" text-anchor="start" fill="#18243D"><title>今日の学習</title><tspan x="63" y="138.38">今日の学習</tspan></text><g transform="translate(26,177) scale(0.9166666666666666,0.9166666666666666)"><title>search</title><path d="M10.5 3a7.5 7.5 0 1 0 0 15a7.5 7.5 0 1 0 0-15 M16 16l5 5" fill="none" stroke="#63718A" stroke-width="1.7" stroke-linecap="round" stroke-linejoin="round"/></g><text font-family="Noto Sans JP,Noto Sans CJK JP,sans-serif" font-size="14" font-weight="400" text-anchor="start" fill="#18243D"><title>ブラウズ</title><tspan x="63" y="192.38">ブラウズ</tspan></text><rect x="12" y="220" width="206" height="44" rx="12" fill="#EAF1FF"><title>Shape</title></rect><g transform="translate(26,231) scale(0.9166666666666666,0.9166666666666666)"><title>chart</title><path d="M4 20V10 M10 20V4 M16 20v-7 M22 20H2" fill="none" stroke="#2563EB" stroke-width="1.7" stroke-linecap="round" stroke-linejoin="round"/></g><text font-family="Noto Sans JP,Noto Sans CJK JP,sans-serif" font-size="14" font-weight="600" text-anchor="start" fill="#2563EB"><title>統計</title><tspan x="63" y="246.38">統計</tspan></text><g transform="translate(26,285) scale(0.9166666666666666,0.9166666666666666)"><title>settings</title><path d="M9 3h6l1 3 3 1 2 5-2 5-3 1-1 3H9l-1-3-3-1-2-5 2-5 3-1z M12 8a4 4 0 1 0 0 8a4 4 0 1 0 0-8" fill="none" stroke="#63718A" stroke-width="1.7" stroke-linecap="round" stroke-linejoin="round"/></g><text font-family="Noto Sans JP,Noto Sans CJK JP,sans-serif" font-size="14" font-weight="400" text-anchor="start" fill="#18243D"><title>設定</title><tspan x="63" y="300.38">設定</tspan></text><rect x="21" y="351" width="188" height="1" rx="0" fill="#E3E8F0"><title>Shape</title></rect><text font-family="Noto Sans JP,Noto Sans CJK JP,sans-serif" font-size="12" font-weight="600" text-anchor="start" fill="#63718A"><title>マイデッキ</title><tspan x="22" y="390.04">マイデッキ</tspan></text><g transform="translate(23,416) scale(0.75,0.75)"><title>deck</title><path d="M4 7h16v14H4z M7 3h10 M5 5h14 M8 11h8 M8 15h5" fill="none" stroke="#63718A" stroke-width="1.7" stroke-linecap="round" stroke-linejoin="round"/></g><text font-family="Noto Sans JP,Noto Sans CJK JP,sans-serif" font-size="12" font-weight="400" text-anchor="start" fill="#18243D"><title>Everyday English</title><tspan x="52" y="426.04">Everyday English</tspan></text><g transform="translate(23,461) scale(0.75,0.75)"><title>deck</title><path d="M4 7h16v14H4z M7 3h10 M5 5h14 M8 11h8 M8 15h5" fill="none" stroke="#63718A" stroke-width="1.7" stroke-linecap="round" stroke-linejoin="round"/></g><text font-family="Noto Sans JP,Noto Sans CJK JP,sans-serif" font-size="12" font-weight="400" text-anchor="start" fill="#18243D"><title>日本語 / 表現</title><tspan x="52" y="471.04">日本語 / 表現</tspan></text><g transform="translate(23,506) scale(0.75,0.75)"><title>deck</title><path d="M4 7h16v14H4z M7 3h10 M5 5h14 M8 11h8 M8 15h5" fill="none" stroke="#63718A" stroke-width="1.7" stroke-linecap="round" stroke-linejoin="round"/></g><text font-family="Noto Sans JP,Noto Sans CJK JP,sans-serif" font-size="12" font-weight="400" text-anchor="start" fill="#18243D"><title>医学 / 基礎</title><tspan x="52" y="516.04">医学 / 基礎</tspan></text><text font-family="Noto Sans JP,Noto Sans CJK JP,sans-serif" font-size="12" font-weight="600" text-anchor="start" fill="#63718A"><title>保存した検索</title><tspan x="22" y="582.04">保存した検索</tspan></text><text font-family="Noto Sans JP,Noto Sans CJK JP,sans-serif" font-size="12" font-weight="400" text-anchor="start" fill="#63718A"><title>#  苦手なカード</title><tspan x="23" y="623.04">#  苦手なカード</tspan></text><text font-family="Noto Sans JP,Noto Sans CJK JP,sans-serif" font-size="12" font-weight="400" text-anchor="start" fill="#63718A"><title>#  最近追加したカード</title><tspan x="23" y="660.04">#  最近追加したカード</tspan></text><g transform="translate(23,716) scale(0.7916666666666666,0.7916666666666666)"><title>sync</title><path d="M20 8a8 8 0 0 0-14-3L3 8 M3 3v5h5 M4 16a8 8 0 0 0 14 3l3-3 M21 21v-5h-5" fill="none" stroke="#16815D" stroke-width="1.7" stroke-linecap="round" stroke-linejoin="round"/></g><text font-family="Noto Sans JP,Noto Sans CJK JP,sans-serif" font-size="11" font-weight="400" text-anchor="start" fill="#63718A"><title>すべて同期済み</title><tspan x="55" y="723.87">すべて同期済み</tspan></text></g><text font-family="Noto Sans JP,Noto Sans CJK JP,sans-serif" font-size="28" font-weight="700" text-anchor="start" fill="#18243D"><title>記憶の状態</title><tspan x="272" y="92.75999999999999">記憶の状態</tspan></text><text font-family="Noto Sans JP,Noto Sans CJK JP,sans-serif" font-size="12" font-weight="400" text-anchor="start" fill="#63718A"><title>FSRS · すべてのデッキ · 過去1か月</title><tspan x="273" y="121.03999999999999">FSRS · すべてのデッキ · 過去1か月</tspan></text><rect x="1120" y="59" width="44" height="44" rx="14" fill="#FFFFFF"><title>Icon button / plus</title></rect><g transform="translate(1120,59)"><g transform="translate(11,11) scale(0.9166666666666666,0.9166666666666666)"><title>plus</title><path d="M12 5v14 M5 12h14" fill="none" stroke="#2563EB" stroke-width="1.7" stroke-linecap="round" stroke-linejoin="round"/></g></g><rect x="525.0" y="824" width="144" height="4" rx="2" fill="#18243D"><title>Home indicator</title></rect><rect x="271" y="143" width="99" height="32" rx="10" fill="#FFFFFF"><title>Shape</title></rect><text font-family="Noto Sans JP,Noto Sans CJK JP,sans-serif" font-size="12" font-weight="500" text-anchor="middle" fill="#63718A"><title>概要</title><tspan x="320.5" y="162.04">概要</tspan></text><rect x="382" y="143" width="99" height="32" rx="10" fill="#FFFFFF"><title>Shape</title></rect><text font-family="Noto Sans JP,Noto Sans CJK JP,sans-serif" font-size="12" font-weight="500" text-anchor="middle" fill="#63718A"><title>履歴</title><tspan x="431.5" y="162.04">履歴</tspan></text><rect x="493" y="143" width="99" height="32" rx="10" fill="#EAF1FF"><title>Shape</title></rect><text font-family="Noto Sans JP,Noto Sans CJK JP,sans-serif" font-size="12" font-weight="600" text-anchor="middle" fill="#2563EB"><title>記憶</title><tspan x="542.5" y="162.04">記憶</tspan></text><rect x="604" y="143" width="99" height="32" rx="10" fill="#FFFFFF"><title>Shape</title></rect><text font-family="Noto Sans JP,Noto Sans CJK JP,sans-serif" font-size="12" font-weight="500" text-anchor="middle" fill="#63718A"><title>保持率</title><tspan x="653.5" y="162.04">保持率</tspan></text><rect x="271" y="200" width="439" height="272" rx="18" fill="#FFFFFF"><title>Chart / 復習間隔</title></rect><g transform="translate(271,200)"><text font-family="Noto Sans JP,Noto Sans CJK JP,sans-serif" font-size="14" font-weight="600" text-anchor="start" fill="#18243D"><title>復習間隔</title><tspan x="18" y="31.38">復習間隔</tspan></text><text font-family="Noto Sans JP,Noto Sans CJK JP,sans-serif" font-size="28" font-weight="700" text-anchor="start" fill="#18243D"><title>中央値24日</title><tspan x="18" y="76.75999999999999">中央値24日</tspan></text><text font-family="Noto Sans JP,Noto Sans CJK JP,sans-serif" font-size="11" font-weight="400" text-anchor="start" fill="#63718A"><title>日 / カード数</title><tspan x="18" y="96.87">日 / カード数</tspan></text><rect x="20" y="118" width="399" height="1" rx="0" fill="#E3E8F0"><title>Shape</title></rect><rect x="20" y="176.5" width="399" height="1" rx="0" fill="#E3E8F0"><title>Shape</title></rect><rect x="20" y="235" width="399" height="1" rx="0" fill="#E3E8F0"><title>Shape</title></rect><rect x="20.0" y="226.76" width="43.75" height="8.24" rx="4" fill="#EAF1FF"><title>Shape</title></rect><rect x="70.75" y="205.34" width="43.75" height="29.66" rx="4" fill="#EAF1FF"><title>Shape</title></rect><rect x="121.5" y="156.73" width="43.75" height="78.27" rx="4" fill="#EAF1FF"><title>Shape</title></rect><rect x="172.25" y="118.0" width="43.75" height="117.0" rx="4" fill="#EAF1FF"><title>Shape</title></rect><rect x="223.0" y="135.3" width="43.75" height="99.7" rx="4" fill="#EAF1FF"><title>Shape</title></rect><rect x="273.75" y="178.97" width="43.75" height="56.03" rx="4" fill="#EAF1FF"><title>Shape</title></rect><rect x="324.5" y="206.99" width="43.75" height="28.01" rx="4" fill="#EAF1FF"><title>Shape</title></rect><rect x="375.25" y="225.11" width="43.75" height="9.89" rx="4" fill="#2563EB"><title>Shape</title></rect><text font-family="Noto Sans JP,Noto Sans CJK JP,sans-serif" font-size="10" font-weight="400" text-anchor="start" fill="#63718A"><title>1日</title><tspan x="20" y="257.7">1日</tspan></text><text font-family="Noto Sans JP,Noto Sans CJK JP,sans-serif" font-size="10" font-weight="400" text-anchor="end" fill="#63718A"><title>365日</title><tspan x="419" y="257.7">365日</tspan></text></g><rect x="725" y="200" width="439" height="272" rx="18" fill="#FFFFFF"><title>Chart / 安定度</title></rect><g transform="translate(725,200)"><text font-family="Noto Sans JP,Noto Sans CJK JP,sans-serif" font-size="14" font-weight="600" text-anchor="start" fill="#18243D"><title>安定度</title><tspan x="18" y="31.38">安定度</tspan></text><text font-family="Noto Sans JP,Noto Sans CJK JP,sans-serif" font-size="28" font-weight="700" text-anchor="start" fill="#18243D"><title>平均32.4日</title><tspan x="18" y="76.75999999999999">平均32.4日</tspan></text><text font-family="Noto Sans JP,Noto Sans CJK JP,sans-serif" font-size="11" font-weight="400" text-anchor="start" fill="#63718A"><title>想起確率が90%になるまでの日数</title><tspan x="18" y="96.87">想起確率が90%になるまでの日数</tspan></text><rect x="20" y="118" width="399" height="1" rx="0" fill="#E3E8F0"><title>Shape</title></rect><rect x="20" y="176.5" width="399" height="1" rx="0" fill="#E3E8F0"><title>Shape</title></rect><rect x="20" y="235" width="399" height="1" rx="0" fill="#E3E8F0"><title>Shape</title></rect><rect x="20.0" y="227.89" width="43.75" height="7.11" rx="4" fill="#EAF1FF"><title>Shape</title></rect><rect x="70.75" y="212.86" width="43.75" height="22.14" rx="4" fill="#EAF1FF"><title>Shape</title></rect><rect x="121.5" y="184.41" width="43.75" height="50.59" rx="4" fill="#EAF1FF"><title>Shape</title></rect><rect x="172.25" y="140.14" width="43.75" height="94.86" rx="4" fill="#EAF1FF"><title>Shape</title></rect><rect x="223.0" y="118.0" width="43.75" height="117.0" rx="4" fill="#EAF1FF"><title>Shape</title></rect><rect x="273.75" y="151.2" width="43.75" height="83.8" rx="4" fill="#EAF1FF"><title>Shape</title></rect><rect x="324.5" y="189.94" width="43.75" height="45.06" rx="4" fill="#EAF1FF"><title>Shape</title></rect><rect x="375.25" y="209.7" width="43.75" height="25.3" rx="4" fill="#2563EB"><title>Shape</title></rect><text font-family="Noto Sans JP,Noto Sans CJK JP,sans-serif" font-size="10" font-weight="400" text-anchor="start" fill="#63718A"><title>0日</title><tspan x="20" y="257.7">0日</tspan></text><text font-family="Noto Sans JP,Noto Sans CJK JP,sans-serif" font-size="10" font-weight="400" text-anchor="end" fill="#63718A"><title>180日</title><tspan x="419" y="257.7">180日</tspan></text></g><rect x="271" y="493" width="439" height="272" rx="18" fill="#FFFFFF"><title>Chart / 難易度</title></rect><g transform="translate(271,493)"><text font-family="Noto Sans JP,Noto Sans CJK JP,sans-serif" font-size="14" font-weight="600" text-anchor="start" fill="#18243D"><title>難易度</title><tspan x="18" y="31.38">難易度</tspan></text><text font-family="Noto Sans JP,Noto Sans CJK JP,sans-serif" font-size="28" font-weight="700" text-anchor="start" fill="#18243D"><title>平均4.8</title><tspan x="18" y="76.75999999999999">平均4.8</tspan></text><text font-family="Noto Sans JP,Noto Sans CJK JP,sans-serif" font-size="11" font-weight="400" text-anchor="start" fill="#63718A"><title>難易度1〜10 / カード数</title><tspan x="18" y="96.87">難易度1〜10 / カード数</tspan></text><rect x="20" y="118" width="399" height="1" rx="0" fill="#E3E8F0"><title>Shape</title></rect><rect x="20" y="176.5" width="399" height="1" rx="0" fill="#E3E8F0"><title>Shape</title></rect><rect x="20" y="235" width="399" height="1" rx="0" fill="#E3E8F0"><title>Shape</title></rect><rect x="20.0" y="228.5" width="33.6" height="6.5" rx="4" fill="#EAF1FF"><title>Shape</title></rect><rect x="60.6" y="213.88" width="33.6" height="21.12" rx="4" fill="#EAF1FF"><title>Shape</title></rect><rect x="101.2" y="171.62" width="33.6" height="63.38" rx="4" fill="#EAF1FF"><title>Shape</title></rect><rect x="141.8" y="135.06" width="33.6" height="99.94" rx="4" fill="#EAF1FF"><title>Shape</title></rect><rect x="182.4" y="118.0" width="33.6" height="117.0" rx="4" fill="#EAF1FF"><title>Shape</title></rect><rect x="223.0" y="147.25" width="33.6" height="87.75" rx="4" fill="#EAF1FF"><title>Shape</title></rect><rect x="263.6" y="177.31" width="33.6" height="57.69" rx="4" fill="#EAF1FF"><title>Shape</title></rect><rect x="304.2" y="200.06" width="33.6" height="34.94" rx="4" fill="#EAF1FF"><title>Shape</title></rect><rect x="344.8" y="225.25" width="33.6" height="9.75" rx="4" fill="#EAF1FF"><title>Shape</title></rect><rect x="385.4" y="230.12" width="33.6" height="4.88" rx="4" fill="#2563EB"><title>Shape</title></rect><text font-family="Noto Sans JP,Noto Sans CJK JP,sans-serif" font-size="10" font-weight="400" text-anchor="start" fill="#63718A"><title>1</title><tspan x="20" y="257.7">1</tspan></text><text font-family="Noto Sans JP,Noto Sans CJK JP,sans-serif" font-size="10" font-weight="400" text-anchor="end" fill="#63718A"><title>10</title><tspan x="419" y="257.7">10</tspan></text></g><rect x="725" y="493" width="439" height="272" rx="18" fill="#FFFFFF"><title>Chart / 想起確率</title></rect><g transform="translate(725,493)"><text font-family="Noto Sans JP,Noto Sans CJK JP,sans-serif" font-size="14" font-weight="600" text-anchor="start" fill="#18243D"><title>想起確率</title><tspan x="18" y="31.38">想起確率</tspan></text><text font-family="Noto Sans JP,Noto Sans CJK JP,sans-serif" font-size="28" font-weight="700" text-anchor="start" fill="#18243D"><title>92.6%</title><tspan x="18" y="76.75999999999999">92.6%</tspan></text><text font-family="Noto Sans JP,Noto Sans CJK JP,sans-serif" font-size="11" font-weight="400" text-anchor="start" fill="#63718A"><title>想起確率0〜100% / カード数</title><tspan x="18" y="96.87">想起確率0〜100% / カード数</tspan></text><rect x="20" y="118" width="399" height="1" rx="0" fill="#E3E8F0"><title>Shape</title></rect><rect x="20" y="176.5" width="399" height="1" rx="0" fill="#E3E8F0"><title>Shape</title></rect><rect x="20" y="235" width="399" height="1" rx="0" fill="#E3E8F0"><title>Shape</title></rect><rect x="20.0" y="232" width="33.6" height="3" rx="4" fill="#EAF1FF"><title>Shape</title></rect><rect x="60.6" y="232" width="33.6" height="3" rx="4" fill="#EAF1FF"><title>Shape</title></rect><rect x="101.2" y="231.98" width="33.6" height="3.02" rx="4" fill="#EAF1FF"><title>Shape</title></rect><rect x="141.8" y="230.18" width="33.6" height="4.82" rx="4" fill="#EAF1FF"><title>Shape</title></rect><rect x="182.4" y="227.16" width="33.6" height="7.84" rx="4" fill="#EAF1FF"><title>Shape</title></rect><rect x="223.0" y="224.14" width="33.6" height="10.86" rx="4" fill="#EAF1FF"><title>Shape</title></rect><rect x="263.6" y="213.89" width="33.6" height="21.11" rx="4" fill="#EAF1FF"><title>Shape</title></rect><rect x="304.2" y="196.4" width="33.6" height="38.6" rx="4" fill="#EAF1FF"><title>Shape</title></rect><rect x="344.8" y="152.98" width="33.6" height="82.02" rx="4" fill="#EAF1FF"><title>Shape</title></rect><rect x="385.4" y="118.0" width="33.6" height="117.0" rx="4" fill="#2563EB"><title>Shape</title></rect><text font-family="Noto Sans JP,Noto Sans CJK JP,sans-serif" font-size="10" font-weight="400" text-anchor="start" fill="#63718A"><title>0%</title><tspan x="20" y="257.7">0%</tspan></text><text font-family="Noto Sans JP,Noto Sans CJK JP,sans-serif" font-size="10" font-weight="400" text-anchor="end" fill="#63718A"><title>100%</title><tspan x="419" y="257.7">100%</tspan></text></g></svg>