<svg xmlns="http://www.w3.org/2000/svg" width="393" height="1030" viewBox="0 0 393 1030" role="img" aria-label="ノートを編集"><rect width="100%" height="100%" fill="#F5F7FB"/><text font-family="Noto Sans JP,Noto Sans CJK JP,sans-serif" font-size="14" font-weight="600" text-anchor="start" fill="#18243D"><title>9:41</title><tspan x="25" y="30.38">9:41</tspan></text><rect x="320" y="21" width="17" height="9" rx="2" fill="#18243D"><title>Shape</title></rect><rect x="343" y="19" width="25" height="12" rx="3" fill="#18243D"><title>Shape</title></rect><rect x="346" y="22" width="18" height="6" rx="1" fill="#FFFFFF"><title>Shape</title></rect><g transform="translate(18,69) scale(0.8333333333333334,0.8333333333333334)"><title>back</title><path d="M15 5l-7 7 7 7" fill="none" stroke="#2563EB" stroke-width="1.7" stroke-linecap="round" stroke-linejoin="round"/></g><text font-family="Noto Sans JP,Noto Sans CJK JP,sans-serif" font-size="21" font-weight="700" text-anchor="start" fill="#18243D"><title>ノートを編集</title><tspan x="49" y="86.57">ノートを編集</tspan></text><rect x="327" y="58" width="44" height="44" rx="14" fill="#FFFFFF"><title>Icon button / eye</title></rect><g transform="translate(327,58)"><g transform="translate(11,11) scale(0.9166666666666666,0.9166666666666666)"><title>eye</title><path d="M2 12s4-7 10-7 10 7 10 7-4 7-10 7S2 12 2 12z M12 9a3 3 0 1 0 0 6a3 3 0 1 0 0-6" fill="none" stroke="#2563EB" stroke-width="1.7" stroke-linecap="round" stroke-linejoin="round"/></g></g><rect x="136.5" y="1017" width="120" height="4" rx="2" fill="#18243D"><title>Home indicator</title></rect><rect x="20" y="127" width="162" height="32" rx="10" fill="#EAF1FF"><title>Shape</title></rect><text font-family="Noto Sans JP,Noto Sans CJK JP,sans-serif" font-size="12" font-weight="600" text-anchor="middle" fill="#2563EB"><title>基本（表裏）</title><tspan x="101.0" y="146.04">基本（表裏）</tspan></text><rect x="196" y="127" width="177" height="32" rx="10" fill="#FFFFFF"><title>Shape</title></rect><text font-family="Noto Sans JP,Noto Sans CJK JP,sans-serif" font-size="12" font-weight="500" text-anchor="middle" fill="#63718A"><title>English</title><tspan x="284.5" y="146.04">English</tspan></text><rect x="20" y="184" width="353" height="545" rx="18" fill="#FFFFFF"><title>Note / Editor</title></rect><g transform="translate(20,184)"><text font-family="Noto Sans JP,Noto Sans CJK JP,sans-serif" font-size="12" font-weight="600" text-anchor="start" fill="#63718A"><title>表面</title><tspan x="18" y="28.04">表面</tspan></text><text font-family="Noto Sans JP,Noto Sans CJK JP,sans-serif" font-size="25" font-weight="600" text-anchor="start" fill="#18243D"><title>木漏れ日</title><tspan x="18" y="78.25">木漏れ日</tspan></text><rect x="18" y="103" width="317" height="1" rx="0" fill="#E3E8F0"><title>Shape</title></rect><text font-family="Noto Sans JP,Noto Sans CJK JP,sans-serif" font-size="12" font-weight="600" text-anchor="start" fill="#63718A"><title>裏面</title><tspan x="18" y="137.04">裏面</tspan></text><text font-family="Noto Sans JP,Noto Sans CJK JP,sans-serif" font-size="16" font-weight="400" text-anchor="start" fill="#18243D"><title>sunlight filtering through trees</title><tspan x="18" y="177.72">sunlight filtering through trees</tspan></text><text font-family="Noto Sans JP,Noto Sans CJK JP,sans-serif" font-size="13" font-weight="400" text-anchor="start" fill="#63718A"><title>The forest floor glowed with sunlight
filteri</title><tspan x="18" y="245.21">The forest floor glowed with sunlight</tspan><tspan x="18" y="265.36">filtering through the leaves.</tspan></text><rect x="18" y="308" width="317" height="1" rx="0" fill="#E3E8F0"><title>Shape</title></rect><text font-family="Noto Sans JP,Noto Sans CJK JP,sans-serif" font-size="12" font-weight="600" text-anchor="start" fill="#63718A"><title>音声</title><tspan x="18" y="341.04">音声</tspan></text><rect x="18" y="359" width="317" height="48" rx="10" fill="#F5F7FB"><title>Shape</title></rect><g transform="translate(30,372) scale(0.8333333333333334,0.8333333333333334)"><title>audio</title><path d="M4 9h4l5-5v16l-5-5H4z M17 8a6 6 0 0 1 0 8 M20 5a10 10 0 0 1 0 14" fill="none" stroke="#2563EB" stroke-width="1.7" stroke-linecap="round" stroke-linejoin="round"/></g><text font-family="Noto Sans JP,Noto Sans CJK JP,sans-serif" font-size="13" font-weight="400" text-anchor="start" fill="#18243D"><title>komorebi.mp3</title><tspan x="61" y="388.21">komorebi.mp3</tspan></text><rect x="18" y="428" width="317" height="1" rx="0" fill="#E3E8F0"><title>Shape</title></rect><text font-family="Noto Sans JP,Noto Sans CJK JP,sans-serif" font-size="12" font-weight="600" text-anchor="start" fill="#63718A"><title>タグ</title><tspan x="18" y="460.04">タグ</tspan></text><rect x="18" y="478" width="90" height="32" rx="10" fill="#EAF1FF"><title>Shape</title></rect><text font-family="Noto Sans JP,Noto Sans CJK JP,sans-serif" font-size="12" font-weight="600" text-anchor="middle" fill="#2563EB"><title>日常表現</title><tspan x="63.0" y="497.04">日常表現</tspan></text><rect x="120" y="478" width="64" height="32" rx="10" fill="#EAF1FF"><title>Shape</title></rect><text font-family="Noto Sans JP,Noto Sans CJK JP,sans-serif" font-size="12" font-weight="600" text-anchor="middle" fill="#2563EB"><title>自然</title><tspan x="152.0" y="497.04">自然</tspan></text></g><rect x="20" y="744" width="353" height="50" rx="18" fill="#FFFFFF"><title>Editor / Formatting toolbar</title></rect><g transform="translate(20,744)"><text font-family="Noto Sans JP,Noto Sans CJK JP,sans-serif" font-size="16" font-weight="600" text-anchor="middle" fill="#2563EB"><title>B</title><tspan x="32.0" y="30.72">B</tspan></text><text font-family="Noto Sans JP,Noto Sans CJK JP,sans-serif" font-size="16" font-weight="600" text-anchor="middle" fill="#2563EB"><title>I</title><tspan x="89.0" y="30.72">I</tspan></text><text font-family="Noto Sans JP,Noto Sans CJK JP,sans-serif" font-size="16" font-weight="600" text-anchor="middle" fill="#2563EB"><title>U</title><tspan x="146.0" y="30.72">U</tspan></text><text font-family="Noto Sans JP,Noto Sans CJK JP,sans-serif" font-size="16" font-weight="600" text-anchor="middle" fill="#2563EB"><title>[…]</title><tspan x="203.0" y="30.72">[…]</tspan></text><text font-family="Noto Sans JP,Noto Sans CJK JP,sans-serif" font-size="16" font-weight="600" text-anchor="middle" fill="#2563EB"><title>ƒx</title><tspan x="260.0" y="30.72">ƒx</tspan></text><text font-family="Noto Sans JP,Noto Sans CJK JP,sans-serif" font-size="16" font-weight="600" text-anchor="middle" fill="#2563EB"><title>&lt;/&gt;</title><tspan x="317.0" y="30.72">&lt;/&gt;</tspan></text></g><rect x="20" y="808" width="353" height="48" rx="13" fill="#EAF1FF"><title>Button / 画像・録音・手書きを添付</title></rect><g transform="translate(20,808)"><g transform="translate(14,14.0) scale(0.8333333333333334,0.8333333333333334)"><title>image</title><path d="M3 4h18v16H3z M3 17l6-6 4 4 3-3 5 5 M16 8h.1" fill="none" stroke="#2563EB" stroke-width="1.7" stroke-linecap="round" stroke-linejoin="round"/></g><text font-family="Noto Sans JP,Noto Sans CJK JP,sans-serif" font-size="15" font-weight="600" text-anchor="middle" fill="#2563EB"><title>画像・録音・手書きを添付</title><tspan x="189.5" y="29.549999999999997">画像・録音・手書きを添付</tspan></text></g><text font-family="Noto Sans JP,Noto Sans CJK JP,sans-serif" font-size="11" font-weight="400" text-anchor="middle" fill="#63718A"><title>変更内容は保存するまで反映されません</title><tspan x="196.5" y="889.87">変更内容は保存するまで反映されません</tspan></text><rect x="20" y="917" width="353" height="48" rx="13" fill="#2563EB"><title>Button / 変更を保存</title></rect><g transform="translate(20,917)"><text font-family="Noto Sans JP,Noto Sans CJK JP,sans-serif" font-size="15" font-weight="600" text-anchor="middle" fill="#FFFFFF"><title>変更を保存</title><tspan x="176.5" y="29.549999999999997">変更を保存</tspan></text></g></svg>