<svg xmlns="http://www.w3.org/2000/svg" width="834" height="1194" viewBox="0 0 834 1194" role="img" aria-label="今日の学習"><rect width="100%" height="100%" fill="#F5F7FB"/><text font-family="Noto Sans JP,Noto Sans CJK JP,sans-serif" font-size="11" font-weight="500" text-anchor="start" fill="#18243D"><title>9:41   10月6日 火曜日</title><tspan x="25" y="21.869999999999997">9:41   10月6日 火曜日</tspan></text><text font-family="Noto Sans JP,Noto Sans CJK JP,sans-serif" font-size="11" font-weight="400" text-anchor="end" fill="#63718A"><title>100%</title><tspan x="809" y="21.869999999999997">100%</tspan></text><rect x="12" y="40" width="230" height="1136" rx="20" fill="#FFFFFF"><title>Navigation / Regular sidebar</title></rect><g transform="translate(12,40)"><g transform="translate(21,26) scale(1.2083333333333333,1.2083333333333333)"><title>deck</title><path d="M4 7h16v14H4z M7 3h10 M5 5h14 M8 11h8 M8 15h5" fill="none" stroke="#2563EB" stroke-width="1.7" stroke-linecap="round" stroke-linejoin="round"/></g><text font-family="Noto Sans JP,Noto Sans CJK JP,sans-serif" font-size="24" font-weight="700" text-anchor="start" fill="#18243D"><title>Negoto</title><tspan x="63" y="49.08">Negoto</tspan></text><text font-family="Noto Sans JP,Noto Sans CJK JP,sans-serif" font-size="10" font-weight="400" text-anchor="start" fill="#63718A"><title>自分のペースで、長く覚える</title><tspan x="21" y="80.7">自分のペースで、長く覚える</tspan></text><rect x="12" y="112" width="206" height="44" rx="12" fill="#EAF1FF"><title>Shape</title></rect><g transform="translate(26,123) scale(0.9166666666666666,0.9166666666666666)"><title>deck</title><path d="M4 7h16v14H4z M7 3h10 M5 5h14 M8 11h8 M8 15h5" fill="none" stroke="#2563EB" stroke-width="1.7" stroke-linecap="round" stroke-linejoin="round"/></g><text font-family="Noto Sans JP,Noto Sans CJK JP,sans-serif" font-size="14" font-weight="600" text-anchor="start" fill="#2563EB"><title>今日の学習</title><tspan x="63" y="138.38">今日の学習</tspan></text><g transform="translate(26,177) scale(0.9166666666666666,0.9166666666666666)"><title>search</title><path d="M10.5 3a7.5 7.5 0 1 0 0 15a7.5 7.5 0 1 0 0-15 M16 16l5 5" fill="none" stroke="#63718A" stroke-width="1.7" stroke-linecap="round" stroke-linejoin="round"/></g><text font-family="Noto Sans JP,Noto Sans CJK JP,sans-serif" font-size="14" font-weight="400" text-anchor="start" fill="#18243D"><title>ブラウズ</title><tspan x="63" y="192.38">ブラウズ</tspan></text><g transform="translate(26,231) scale(0.9166666666666666,0.9166666666666666)"><title>chart</title><path d="M4 20V10 M10 20V4 M16 20v-7 M22 20H2" fill="none" stroke="#63718A" stroke-width="1.7" stroke-linecap="round" stroke-linejoin="round"/></g><text font-family="Noto Sans JP,Noto Sans CJK JP,sans-serif" font-size="14" font-weight="400" text-anchor="start" fill="#18243D"><title>統計</title><tspan x="63" y="246.38">統計</tspan></text><g transform="translate(26,285) scale(0.9166666666666666,0.9166666666666666)"><title>settings</title><path d="M9 3h6l1 3 3 1 2 5-2 5-3 1-1 3H9l-1-3-3-1-2-5 2-5 3-1z M12 8a4 4 0 1 0 0 8a4 4 0 1 0 0-8" fill="none" stroke="#63718A" stroke-width="1.7" stroke-linecap="round" stroke-linejoin="round"/></g><text font-family="Noto Sans JP,Noto Sans CJK JP,sans-serif" font-size="14" font-weight="400" text-anchor="start" fill="#18243D"><title>設定</title><tspan x="63" y="300.38">設定</tspan></text><rect x="21" y="351" width="188" height="1" rx="0" fill="#E3E8F0"><title>Shape</title></rect><text font-family="Noto Sans JP,Noto Sans CJK JP,sans-serif" font-size="12" font-weight="600" text-anchor="start" fill="#63718A"><title>マイデッキ</title><tspan x="22" y="390.04">マイデッキ</tspan></text><g transform="translate(23,416) scale(0.75,0.75)"><title>deck</title><path d="M4 7h16v14H4z M7 3h10 M5 5h14 M8 11h8 M8 15h5" fill="none" stroke="#63718A" stroke-width="1.7" stroke-linecap="round" stroke-linejoin="round"/></g><text font-family="Noto Sans JP,Noto Sans CJK JP,sans-serif" font-size="12" font-weight="400" text-anchor="start" fill="#18243D"><title>Everyday English</title><tspan x="52" y="426.04">Everyday English</tspan></text><g transform="translate(23,461) scale(0.75,0.75)"><title>deck</title><path d="M4 7h16v14H4z M7 3h10 M5 5h14 M8 11h8 M8 15h5" fill="none" stroke="#63718A" stroke-width="1.7" stroke-linecap="round" stroke-linejoin="round"/></g><text font-family="Noto Sans JP,Noto Sans CJK JP,sans-serif" font-size="12" font-weight="400" text-anchor="start" fill="#18243D"><title>日本語 / 表現</title><tspan x="52" y="471.04">日本語 / 表現</tspan></text><g transform="translate(23,506) scale(0.75,0.75)"><title>deck</title><path d="M4 7h16v14H4z M7 3h10 M5 5h14 M8 11h8 M8 15h5" fill="none" stroke="#63718A" stroke-width="1.7" stroke-linecap="round" stroke-linejoin="round"/></g><text font-family="Noto Sans JP,Noto Sans CJK JP,sans-serif" font-size="12" font-weight="400" text-anchor="start" fill="#18243D"><title>医学 / 基礎</title><tspan x="52" y="516.04">医学 / 基礎</tspan></text><text font-family="Noto Sans JP,Noto Sans CJK JP,sans-serif" font-size="12" font-weight="600" text-anchor="start" fill="#63718A"><title>保存した検索</title><tspan x="22" y="582.04">保存した検索</tspan></text><text font-family="Noto Sans JP,Noto Sans CJK JP,sans-serif" font-size="12" font-weight="400" text-anchor="start" fill="#63718A"><title>#  苦手なカード</title><tspan x="23" y="623.04">#  苦手なカード</tspan></text><text font-family="Noto Sans JP,Noto Sans CJK JP,sans-serif" font-size="12" font-weight="400" text-anchor="start" fill="#63718A"><title>#  最近追加したカード</title><tspan x="23" y="660.04">#  最近追加したカード</tspan></text><g transform="translate(23,1076) scale(0.7916666666666666,0.7916666666666666)"><title>sync</title><path d="M20 8a8 8 0 0 0-14-3L3 8 M3 3v5h5 M4 16a8 8 0 0 0 14 3l3-3 M21 21v-5h-5" fill="none" stroke="#16815D" stroke-width="1.7" stroke-linecap="round" stroke-linejoin="round"/></g><text font-family="Noto Sans JP,Noto Sans CJK JP,sans-serif" font-size="11" font-weight="400" text-anchor="start" fill="#63718A"><title>すべて同期済み</title><tspan x="55" y="1083.87">すべて同期済み</tspan></text></g><text font-family="Noto Sans JP,Noto Sans CJK JP,sans-serif" font-size="28" font-weight="700" text-anchor="start" fill="#18243D"><title>今日の学習</title><tspan x="272" y="92.75999999999999">今日の学習</tspan></text><text font-family="Noto Sans JP,Noto Sans CJK JP,sans-serif" font-size="12" font-weight="400" text-anchor="start" fill="#63718A"><title>iPad 縦向き · 834pt</title><tspan x="273" y="121.03999999999999">iPad 縦向き · 834pt</tspan></text><rect x="760" y="59" width="44" height="44" rx="14" fill="#FFFFFF"><title>Icon button / plus</title></rect><g transform="translate(760,59)"><g transform="translate(11,11) scale(0.9166666666666666,0.9166666666666666)"><title>plus</title><path d="M12 5v14 M5 12h14" fill="none" stroke="#2563EB" stroke-width="1.7" stroke-linecap="round" stroke-linejoin="round"/></g></g><rect x="345.0" y="1184" width="144" height="4" rx="2" fill="#18243D"><title>Home indicator</title></rect><rect x="271" y="148" width="533" height="257" rx="22" fill="#182D55"><title>Surface</title></rect><g transform="translate(271,148)"><text font-family="Noto Sans JP,Noto Sans CJK JP,sans-serif" font-size="18" font-weight="400" text-anchor="start" fill="#CFDCF5"><title>少しずつ、確かな記憶に。</title><tspan x="24" y="45.06">少しずつ、確かな記憶に。</tspan></text><text font-family="Noto Sans JP,Noto Sans CJK JP,sans-serif" font-size="65" font-weight="700" text-anchor="start" fill="#FFFFFF"><title>72</title><tspan x="24" y="151.05">72</tspan></text><text font-family="Noto Sans JP,Noto Sans CJK JP,sans-serif" font-size="16" font-weight="400" text-anchor="start" fill="#CFDCF5"><title>枚 残っています</title><tspan x="149" y="136.72">枚 残っています</tspan></text><rect x="24" y="183" width="485" height="48" rx="13" fill="#2563EB"><title>Button / 学習をはじめる</title></rect><g transform="translate(24,183)"><g transform="translate(14,14.0) scale(0.8333333333333334,0.8333333333333334)"><title>play</title><path d="M7 4l13 8-13 8z" fill="none" stroke="#FFFFFF" stroke-width="1.7" stroke-linecap="round" stroke-linejoin="round"/></g><text font-family="Noto Sans JP,Noto Sans CJK JP,sans-serif" font-size="15" font-weight="600" text-anchor="middle" fill="#FFFFFF"><title>学習をはじめる</title><tspan x="255.5" y="29.549999999999997">学習をはじめる</tspan></text></g></g><text font-family="Noto Sans JP,Noto Sans CJK JP,sans-serif" font-size="18" font-weight="600" text-anchor="start" fill="#18243D"><title>マイデッキ</title><tspan x="273" y="459.06">マイデッキ</tspan></text><rect x="271" y="482" width="533" height="234" rx="18" fill="#FFFFFF"><title>Deck list</title></rect><g transform="translate(271,482)"><rect x="16" y="18" width="38" height="42" rx="10" fill="#EAF1FF"><title>Shape</title></rect><g transform="translate(24,27) scale(0.9166666666666666,0.9166666666666666)"><title>deck</title><path d="M4 7h16v14H4z M7 3h10 M5 5h14 M8 11h8 M8 15h5" fill="none" stroke="#2563EB" stroke-width="1.7" stroke-linecap="round" stroke-linejoin="round"/></g><text font-family="Noto Sans JP,Noto Sans CJK JP,sans-serif" font-size="13" font-weight="600" text-anchor="start" fill="#18243D"><title>英語 / Everyday English</title><tspan x="66" y="31.21">英語 / Everyday English</tspan></text><text font-family="Noto Sans JP,Noto Sans CJK JP,sans-serif" font-size="11" font-weight="400" text-anchor="start" fill="#63718A"><title>1,240 枚</title><tspan x="66" y="54.87">1,240 枚</tspan></text><text font-family="Noto Sans JP,Noto Sans CJK JP,sans-serif" font-size="12" font-weight="600" text-anchor="end" fill="#2563EB"><title>12</title><tspan x="435" y="56.04">12</tspan></text><text font-family="Noto Sans JP,Noto Sans CJK JP,sans-serif" font-size="12" font-weight="600" text-anchor="end" fill="#CD4552"><title>4</title><tspan x="470" y="56.04">4</tspan></text><text font-family="Noto Sans JP,Noto Sans CJK JP,sans-serif" font-size="12" font-weight="600" text-anchor="end" fill="#16815D"><title>24</title><tspan x="512" y="56.04">24</tspan></text><rect x="66" y="77" width="451" height="1" rx="0" fill="#E3E8F0"><title>Shape</title></rect><rect x="16" y="96" width="38" height="42" rx="10" fill="#F0ECFA"><title>Shape</title></rect><g transform="translate(24,105) scale(0.9166666666666666,0.9166666666666666)"><title>deck</title><path d="M4 7h16v14H4z M7 3h10 M5 5h14 M8 11h8 M8 15h5" fill="none" stroke="#785BC5" stroke-width="1.7" stroke-linecap="round" stroke-linejoin="round"/></g><text font-family="Noto Sans JP,Noto Sans CJK JP,sans-serif" font-size="13" font-weight="600" text-anchor="start" fill="#18243D"><title>日本語 / 表現を広げる</title><tspan x="66" y="109.21">日本語 / 表現を広げる</tspan></text><text font-family="Noto Sans JP,Noto Sans CJK JP,sans-serif" font-size="11" font-weight="400" text-anchor="start" fill="#63718A"><title>860 枚</title><tspan x="66" y="132.87">860 枚</tspan></text><text font-family="Noto Sans JP,Noto Sans CJK JP,sans-serif" font-size="12" font-weight="600" text-anchor="end" fill="#2563EB"><title>5</title><tspan x="435" y="134.04">5</tspan></text><text font-family="Noto Sans JP,Noto Sans CJK JP,sans-serif" font-size="12" font-weight="600" text-anchor="end" fill="#CD4552"><title>3</title><tspan x="470" y="134.04">3</tspan></text><text font-family="Noto Sans JP,Noto Sans CJK JP,sans-serif" font-size="12" font-weight="600" text-anchor="end" fill="#16815D"><title>12</title><tspan x="512" y="134.04">12</tspan></text><rect x="66" y="155" width="451" height="1" rx="0" fill="#E3E8F0"><title>Shape</title></rect><rect x="16" y="174" width="38" height="42" rx="10" fill="#E8F5EF"><title>Shape</title></rect><g transform="translate(24,183) scale(0.9166666666666666,0.9166666666666666)"><title>deck</title><path d="M4 7h16v14H4z M7 3h10 M5 5h14 M8 11h8 M8 15h5" fill="none" stroke="#16815D" stroke-width="1.7" stroke-linecap="round" stroke-linejoin="round"/></g><text font-family="Noto Sans JP,Noto Sans CJK JP,sans-serif" font-size="13" font-weight="600" text-anchor="start" fill="#18243D"><title>医学 / 基礎をおさらい</title><tspan x="66" y="187.21">医学 / 基礎をおさらい</tspan></text><text font-family="Noto Sans JP,Noto Sans CJK JP,sans-serif" font-size="11" font-weight="400" text-anchor="start" fill="#63718A"><title>1,100 枚</title><tspan x="66" y="210.87">1,100 枚</tspan></text><text font-family="Noto Sans JP,Noto Sans CJK JP,sans-serif" font-size="12" font-weight="600" text-anchor="end" fill="#2563EB"><title>3</title><tspan x="435" y="212.04">3</tspan></text><text font-family="Noto Sans JP,Noto Sans CJK JP,sans-serif" font-size="12" font-weight="600" text-anchor="end" fill="#CD4552"><title>1</title><tspan x="470" y="212.04">1</tspan></text><text font-family="Noto Sans JP,Noto Sans CJK JP,sans-serif" font-size="12" font-weight="600" text-anchor="end" fill="#16815D"><title>8</title><tspan x="512" y="212.04">8</tspan></text></g><rect x="271" y="738" width="533" height="287" rx="18" fill="#FFFFFF"><title>Surface</title></rect><g transform="translate(271,738)"><text font-family="Noto Sans JP,Noto Sans CJK JP,sans-serif" font-size="19" font-weight="600" text-anchor="start" fill="#18243D"><title>今週のリズム</title><tspan x="22" y="43.23">今週のリズム</tspan></text><text font-family="Noto Sans JP,Noto Sans CJK JP,sans-serif" font-size="13" font-weight="400" text-anchor="start" fill="#63718A"><title>24日連続で学習しています</title><tspan x="22" y="78.21">24日連続で学習しています</tspan></text><rect x="22" y="120" width="489" height="1" rx="0" fill="#E3E8F0"><title>Shape</title></rect><rect x="22" y="170.5" width="489" height="1" rx="0" fill="#E3E8F0"><title>Shape</title></rect><rect x="22" y="221" width="489" height="1" rx="0" fill="#E3E8F0"><title>Shape</title></rect><rect x="22.0" y="164.19" width="63.86" height="56.81" rx="4" fill="#EAF1FF"><title>Shape</title></rect><text font-family="Noto Sans JP,Noto Sans CJK JP,sans-serif" font-size="10" font-weight="400" text-anchor="middle" fill="#63718A"><title>水</title><tspan x="53.93" y="240.7">水</tspan></text><rect x="92.86" y="146.04" width="63.86" height="74.96" rx="4" fill="#EAF1FF"><title>Shape</title></rect><text font-family="Noto Sans JP,Noto Sans CJK JP,sans-serif" font-size="10" font-weight="400" text-anchor="middle" fill="#63718A"><title>木</title><tspan x="124.78999999999999" y="240.7">木</tspan></text><rect x="163.71" y="132.62" width="63.86" height="88.38" rx="4" fill="#EAF1FF"><title>Shape</title></rect><text font-family="Noto Sans JP,Noto Sans CJK JP,sans-serif" font-size="10" font-weight="400" text-anchor="middle" fill="#63718A"><title>金</title><tspan x="195.64000000000001" y="240.7">金</tspan></text><rect x="234.57" y="157.88" width="63.86" height="63.12" rx="4" fill="#EAF1FF"><title>Shape</title></rect><text font-family="Noto Sans JP,Noto Sans CJK JP,sans-serif" font-size="10" font-weight="400" text-anchor="middle" fill="#63718A"><title>土</title><tspan x="266.5" y="240.7">土</tspan></text><rect x="305.43" y="123.95" width="63.86" height="97.05" rx="4" fill="#EAF1FF"><title>Shape</title></rect><text font-family="Noto Sans JP,Noto Sans CJK JP,sans-serif" font-size="10" font-weight="400" text-anchor="middle" fill="#63718A"><title>日</title><tspan x="337.36" y="240.7">日</tspan></text><rect x="376.29" y="148.41" width="63.86" height="72.59" rx="4" fill="#EAF1FF"><title>Shape</title></rect><text font-family="Noto Sans JP,Noto Sans CJK JP,sans-serif" font-size="10" font-weight="400" text-anchor="middle" fill="#63718A"><title>月</title><tspan x="408.22" y="240.7">月</tspan></text><rect x="447.14" y="120.0" width="63.86" height="101.0" rx="4" fill="#2563EB"><title>Shape</title></rect><text font-family="Noto Sans JP,Noto Sans CJK JP,sans-serif" font-size="10" font-weight="400" text-anchor="middle" fill="#63718A"><title>火</title><tspan x="479.07" y="240.7">火</tspan></text></g><rect x="271" y="1060" width="533" height="48" rx="13" fill="#EAF1FF"><title>Button / 統計を見る</title></rect><g transform="translate(271,1060)"><text font-family="Noto Sans JP,Noto Sans CJK JP,sans-serif" font-size="15" font-weight="600" text-anchor="middle" fill="#2563EB"><title>統計を見る</title><tspan x="266.5" y="29.549999999999997">統計を見る</tspan></text></g></svg>