<svg xmlns="http://www.w3.org/2000/svg" width="390" height="844" viewBox="0 0 390 844">
<title>ノートを追加</title>
<rect x="0" y="0" width="390" height="844" rx="0" fill="#F6F7FA" opacity="1"/>
<text x="24" y="32.04" fill="#182337" font-family="Noto Sans CJK JP, Noto Sans JP, sans-serif" font-size="13" font-weight="600" text-anchor="start">9:41</text>
<text x="277" y="29.880000000000003" fill="#637087" font-family="Noto Sans CJK JP, Noto Sans JP, sans-serif" font-size="11" font-weight="400" text-anchor="start">Wi-Fi  •  100%</text>
<rect x="20" y="55" width="44" height="48" rx="14" fill="#FFFFFF" opacity="1"/>
<svg x="31.0" y="68.0" width="22" height="22" viewBox="0 0 24 24"><path d="M15 6l-6 6 6 6" fill="none" stroke="#182337" stroke-width="1.7" stroke-linecap="round" stroke-linejoin="round"/></svg>
<text x="76" y="86.76" fill="#182337" font-family="Noto Sans CJK JP, Noto Sans JP, sans-serif" font-size="22" font-weight="600" text-anchor="start">ノートを追加</text>
<rect x="326" y="56" width="44" height="48" rx="14" fill="#FFFFFF" opacity="1"/>
<svg x="337.0" y="69.0" width="22" height="22" viewBox="0 0 24 24"><path d="M12 4v16 M4 12h16" fill="none" stroke="#182337" stroke-width="1.7" stroke-linecap="round" stroke-linejoin="round"/></svg>
<rect x="20" y="142.0" width="120" height="27.86" rx="8" fill="#EAF0FF" opacity="1"/>
<text x="29" y="158.94" fill="#245BDB" font-family="Noto Sans CJK JP, Noto Sans JP, sans-serif" font-size="12" font-weight="400" text-anchor="start">基本（表裏）</text>
<rect x="150" y="142.0" width="220" height="27.86" rx="8" fill="#EAF0FF" opacity="1"/>
<text x="159" y="158.94" fill="#245BDB" font-family="Noto Sans CJK JP, Noto Sans JP, sans-serif" font-size="12" font-weight="400" text-anchor="start">英語  ▾</text>
<text x="20" y="206.70000000000002" fill="#637087" font-family="Noto Sans CJK JP, Noto Sans JP, sans-serif" font-size="12" font-weight="600" text-anchor="start">表面</text>
<rect x="20" y="219.61" width="350" height="87.56" rx="12" fill="#FFFFFF" opacity="1" stroke="#E3E7EF"/>
<text x="36" y="251.73000000000002" fill="#182337" font-family="Noto Sans CJK JP, Noto Sans JP, sans-serif" font-size="15" font-weight="400" text-anchor="start">serendipity</text>
<text x="20" y="342.02" fill="#637087" font-family="Noto Sans CJK JP, Noto Sans JP, sans-serif" font-size="12" font-weight="600" text-anchor="start">裏面</text>
<rect x="20" y="354.93" width="350" height="111.44" rx="12" fill="#FFFFFF" opacity="1" stroke="#E3E7EF"/>
<text x="36" y="387.05" fill="#182337" font-family="Noto Sans CJK JP, Noto Sans JP, sans-serif" font-size="15" font-weight="400" text-anchor="start">思いがけない幸運</text>
<text x="36" y="410.3" fill="#182337" font-family="Noto Sans CJK JP, Noto Sans JP, sans-serif" font-size="15" font-weight="400" text-anchor="start">A beautiful discovery by chance.</text>
<rect x="20" y="488.26" width="350" height="47.76" rx="12" fill="#FFFFFF" opacity="1" stroke="#E3E7EF"/>
<text x="34" y="515.49" fill="#182337" font-family="Noto Sans CJK JP, Noto Sans JP, sans-serif" font-size="16" font-weight="400" text-anchor="start">B   I   U   色   x₂   √   [ … ]   &lt;/&gt;</text>
<rect x="20.0" y="551.94" width="111.67" height="44" rx="14" fill="#EAF0FF" opacity="1"/>
<text x="75.83500000000001" y="578.09" fill="#245BDB" font-family="Noto Sans CJK JP, Noto Sans JP, sans-serif" font-size="15" font-weight="600" text-anchor="middle">メディア</text>
<rect x="136.67" y="551.94" width="111.67" height="44" rx="14" fill="#EAF0FF" opacity="1"/>
<text x="192.505" y="578.09" fill="#245BDB" font-family="Noto Sans CJK JP, Noto Sans JP, sans-serif" font-size="15" font-weight="600" text-anchor="middle">プレビュー</text>
<rect x="253.33" y="551.94" width="111.67" height="44" rx="14" fill="#EAF0FF" opacity="1"/>
<text x="309.16499999999996" y="578.09" fill="#245BDB" font-family="Noto Sans CJK JP, Noto Sans JP, sans-serif" font-size="15" font-weight="600" text-anchor="middle">テンプレート</text>
<text x="20" y="630.57" fill="#637087" font-family="Noto Sans CJK JP, Noto Sans JP, sans-serif" font-size="12" font-weight="600" text-anchor="start">タグ</text>
<rect x="20" y="643.48" width="350" height="47.76" rx="12" fill="#FFFFFF" opacity="1" stroke="#E3E7EF"/>
<text x="36" y="675.6" fill="#182337" font-family="Noto Sans CJK JP, Noto Sans JP, sans-serif" font-size="15" font-weight="400" text-anchor="start">vocabulary   unit-04</text>
<text x="20" y="725.01" fill="#19765C" font-family="Noto Sans CJK JP, Noto Sans JP, sans-serif" font-size="11" font-weight="400" text-anchor="start">重複なし  ·  ノートから1枚のカードを作成</text>
<rect x="20" y="692.24" width="350" height="47.76" rx="14" fill="#245BDB" opacity="1"/>
<text x="195.0" y="720.38" fill="#FFFFFF" font-family="Noto Sans CJK JP, Noto Sans JP, sans-serif" font-size="15" font-weight="600" text-anchor="middle">ノートを保存</text>
<rect x="0" y="754" width="390" height="90" rx="0" fill="#FFFFFF" opacity="1"/>
<rect x="0" y="754" width="390" height="1" rx="0" fill="#E3E7EF" opacity="1"/>
<rect x="0.0" y="757" width="97.5" height="61" rx="0" fill="#FFFFFF" opacity="1"/>
<svg x="38.75" y="765" width="20" height="20" viewBox="0 0 24 24"><path d="M4 7h16v13H4z M7 4h10 M8 11h8 M8 15h5" fill="none" stroke="#637087" stroke-width="1.7" stroke-linecap="round" stroke-linejoin="round"/></svg>
<text x="48.75" y="806.8" fill="#637087" font-family="Noto Sans CJK JP, Noto Sans JP, sans-serif" font-size="10" font-weight="400" text-anchor="middle">デッキ</text>
<rect x="97.5" y="757" width="97.5" height="61" rx="0" fill="#FFFFFF" opacity="1"/>
<rect x="119.25" y="762" width="54" height="28" rx="14" fill="#EAF0FF" opacity="1"/>
<svg x="136.25" y="765" width="20" height="20" viewBox="0 0 24 24"><path d="M16 16l5 5 M18 10a8 8 0 1 1-16 0a8 8 0 1 1 16 0" fill="none" stroke="#245BDB" stroke-width="1.7" stroke-linecap="round" stroke-linejoin="round"/></svg>
<text x="146.25" y="806.8" fill="#245BDB" font-family="Noto Sans CJK JP, Noto Sans JP, sans-serif" font-size="10" font-weight="400" text-anchor="middle">ブラウズ</text>
<rect x="195.0" y="757" width="97.5" height="61" rx="0" fill="#FFFFFF" opacity="1"/>
<svg x="233.75" y="765" width="20" height="20" viewBox="0 0 24 24"><path d="M4 20V11h3v9 M10 20V4h3v16 M16 20V8h3v12" fill="none" stroke="#637087" stroke-width="1.7" stroke-linecap="round" stroke-linejoin="round"/></svg>
<text x="243.75" y="806.8" fill="#637087" font-family="Noto Sans CJK JP, Noto Sans JP, sans-serif" font-size="10" font-weight="400" text-anchor="middle">統計</text>
<rect x="292.5" y="757" width="97.5" height="61" rx="0" fill="#FFFFFF" opacity="1"/>
<svg x="331.25" y="765" width="20" height="20" viewBox="0 0 24 24"><path d="M12 8a4 4 0 1 0 0 8a4 4 0 1 0 0-8 M12 2v3 M12 19v3 M2 12h3 M19 12h3 M5 5l2 2 M17 17l2 2 M5 19l2-2 M17 7l2-2" fill="none" stroke="#637087" stroke-width="1.7" stroke-linecap="round" stroke-linejoin="round"/></svg>
<text x="341.25" y="806.8" fill="#637087" font-family="Noto Sans CJK JP, Noto Sans JP, sans-serif" font-size="10" font-weight="400" text-anchor="middle">設定</text>
<rect x="140.0" y="831" width="110" height="4" rx="2" fill="#182337" opacity="1"/>
</svg>