<svg xmlns="http://www.w3.org/2000/svg" width="390" height="844" viewBox="0 0 390 844">
<title>デッキ</title>
<rect x="0" y="0" width="390" height="844" rx="0" fill="#F6F7FA" opacity="1"/>
<text x="24" y="32.04" fill="#182337" font-family="Noto Sans CJK JP, Noto Sans JP, sans-serif" font-size="13" font-weight="600" text-anchor="start">9:41</text>
<text x="277" y="29.880000000000003" fill="#637087" font-family="Noto Sans CJK JP, Noto Sans JP, sans-serif" font-size="11" font-weight="400" text-anchor="start">Wi-Fi  •  100%</text>
<text x="20" y="98.4" fill="#182337" font-family="Noto Sans CJK JP, Noto Sans JP, sans-serif" font-size="30" font-weight="600" text-anchor="start">デッキ</text>
<rect x="326" y="56" width="44" height="48" rx="14" fill="#FFFFFF" opacity="1"/>
<svg x="337.0" y="69.0" width="22" height="22" viewBox="0 0 24 24"><path d="M12 4v16 M4 12h16" fill="none" stroke="#182337" stroke-width="1.7" stroke-linecap="round" stroke-linejoin="round"/></svg>
<svg x="157.0" y="223" width="76" height="76" viewBox="0 0 24 24"><path d="M4 7h16v13H4z M7 4h10 M8 11h8 M8 15h5" fill="none" stroke="#245BDB" stroke-width="1.7" stroke-linecap="round" stroke-linejoin="round"/></svg>
<text x="195.0" y="374.0" fill="#182337" font-family="Noto Sans CJK JP, Noto Sans JP, sans-serif" font-size="25" font-weight="600" text-anchor="middle">最初のデッキを作ろう</text>
<text x="195.0" y="412.12" fill="#637087" font-family="Noto Sans CJK JP, Noto Sans JP, sans-serif" font-size="14" font-weight="400" text-anchor="middle">自分で作る、共有デッキを探す、</text>
<text x="195.0" y="433.82" fill="#637087" font-family="Noto Sans CJK JP, Noto Sans JP, sans-serif" font-size="14" font-weight="400" text-anchor="middle">Ankiから読み込む。好きな方法で。</text>
<rect x="20" y="493" width="350" height="48" rx="14" fill="#245BDB" opacity="1"/>
<text x="195.0" y="521.2" fill="#FFFFFF" font-family="Noto Sans CJK JP, Noto Sans JP, sans-serif" font-size="15" font-weight="600" text-anchor="middle">デッキを作成</text>
<rect x="20" y="558" width="350" height="48" rx="14" fill="#EAF0FF" opacity="1"/>
<text x="195.0" y="586.2" fill="#245BDB" font-family="Noto Sans CJK JP, Noto Sans JP, sans-serif" font-size="15" font-weight="600" text-anchor="middle">ファイルから読み込む</text>
<rect x="0" y="754" width="390" height="90" rx="0" fill="#FFFFFF" opacity="1"/>
<rect x="0" y="754" width="390" height="1" rx="0" fill="#E3E7EF" opacity="1"/>
<rect x="0.0" y="757" width="97.5" height="61" rx="0" fill="#FFFFFF" opacity="1"/>
<rect x="21.75" y="762" width="54" height="28" rx="14" fill="#EAF0FF" opacity="1"/>
<svg x="38.75" y="765" width="20" height="20" viewBox="0 0 24 24"><path d="M4 7h16v13H4z M7 4h10 M8 11h8 M8 15h5" fill="none" stroke="#245BDB" stroke-width="1.7" stroke-linecap="round" stroke-linejoin="round"/></svg>
<text x="48.75" y="806.8" fill="#245BDB" font-family="Noto Sans CJK JP, Noto Sans JP, sans-serif" font-size="10" font-weight="400" text-anchor="middle">デッキ</text>
<rect x="97.5" y="757" width="97.5" height="61" rx="0" fill="#FFFFFF" opacity="1"/>
<svg x="136.25" y="765" width="20" height="20" viewBox="0 0 24 24"><path d="M16 16l5 5 M18 10a8 8 0 1 1-16 0a8 8 0 1 1 16 0" fill="none" stroke="#637087" stroke-width="1.7" stroke-linecap="round" stroke-linejoin="round"/></svg>
<text x="146.25" y="806.8" fill="#637087" font-family="Noto Sans CJK JP, Noto Sans JP, sans-serif" font-size="10" font-weight="400" text-anchor="middle">ブラウズ</text>
<rect x="195.0" y="757" width="97.5" height="61" rx="0" fill="#FFFFFF" opacity="1"/>
<svg x="233.75" y="765" width="20" height="20" viewBox="0 0 24 24"><path d="M4 20V11h3v9 M10 20V4h3v16 M16 20V8h3v12" fill="none" stroke="#637087" stroke-width="1.7" stroke-linecap="round" stroke-linejoin="round"/></svg>
<text x="243.75" y="806.8" fill="#637087" font-family="Noto Sans CJK JP, Noto Sans JP, sans-serif" font-size="10" font-weight="400" text-anchor="middle">統計</text>
<rect x="292.5" y="757" width="97.5" height="61" rx="0" fill="#FFFFFF" opacity="1"/>
<svg x="331.25" y="765" width="20" height="20" viewBox="0 0 24 24"><path d="M12 8a4 4 0 1 0 0 8a4 4 0 1 0 0-8 M12 2v3 M12 19v3 M2 12h3 M19 12h3 M5 5l2 2 M17 17l2 2 M5 19l2-2 M17 7l2-2" fill="none" stroke="#637087" stroke-width="1.7" stroke-linecap="round" stroke-linejoin="round"/></svg>
<text x="341.25" y="806.8" fill="#637087" font-family="Noto Sans CJK JP, Noto Sans JP, sans-serif" font-size="10" font-weight="400" text-anchor="middle">設定</text>
<rect x="140.0" y="831" width="110" height="4" rx="2" fill="#182337" opacity="1"/>
</svg>